<?xml version="1.0" encoding="UTF-8"?>
<svg xmlns="http://www.w3.org/2000/svg" viewBox="0 0 1664 1191">
  <defs>
    <style>
      .cls-1, .cls-2, .cls-3, .cls-4, .cls-5 {
        fill: #000;
      }

      .cls-1, .cls-6 {
        stroke-width: 0px;
      }

      .cls-7, .cls-8 {
        stroke: #000;
        stroke-miterlimit: 10;
      }

      .cls-7, .cls-6 {
        fill: #fff;
      }

      .cls-8 {
        fill: none;
      }

      .cls-2 {
        font-family: NotoSansJP-SemiBold, 'Noto Sans JP';
        font-size: 40px;
        font-weight: 600;
      }

      .cls-3 {
        glyph-orientation-vertical: 0deg;
        text-orientation: upright;
        writing-mode: tb;
      }

      .cls-3, .cls-4 {
        font-size: 36px;
      }

      .cls-3, .cls-4, .cls-5 {
        font-family: NotoSansJP-Medium, 'Noto Sans JP';
        font-weight: 500;
      }

      .cls-5 {
        font-size: 30px;
      }
    </style>
  </defs>
  <g id="room_1f">
      <a href="google.com">
        <g>
          <rect class="cls-6" x="530.17" y="1074.46" width="141" height="115"/>
          <path class="cls-1" d="M669.67,1075.96v112h-138v-112h138M672.67,1072.96h-144v118h144v-118h0Z"/>
        </g>
      </a>
      <text class="cls-2" transform="translate(577.6 1149.56)"><tspan x="0" y="0">1F</tspan></text>
  </g>
  <g id="not_room">
    <g>
      <rect class="cls-6" x="241.5" y="906.5" width="287" height="117"/>
      <path class="cls-1" d="M528,907v116H242v-116h286M529,906H241v118h288v-118h0Z"/>
    </g>
    <polyline class="cls-7" points="673 1023.84 529 1023.84 529 905.84 673 905.84"/>
    <text class="cls-4" transform="translate(564.69 980.43)"><tspan x="0" y="0">階段</tspan></text>
    <g>
      <rect class="cls-6" x="722.5" y="905.5" width="431" height="117"/>
      <path class="cls-1" d="M1153,906v116h-430v-116h430M1154,905h-432v118h432v-118h0Z"/>
    </g>
    <g>
      <rect class="cls-6" x="241.5" y="739.5" width="287" height="166"/>
      <path class="cls-1" d="M528,740v165H242v-165h286M529,739H241v167h288v-167h0Z"/>
    </g>
    <g>
      <rect class="cls-6" x="1010.5" y="739.5" width="143" height="117"/>
      <path class="cls-1" d="M1153,740v116h-142v-116h142M1154,739h-144v118h144v-118h0Z"/>
    </g>
    <!-- <text class="cls-4" transform="translate(1027.98 813.75)"><tspan x="0" y="0">トイレ</tspan></text> -->
    <g>
      <rect class="cls-6" x="1010.5" y="503.5" width="143" height="235"/>
      <path class="cls-1" d="M1153,504v234h-142v-234h142M1154,503h-144v236h144v-236h0Z"/>
    </g>
    <g>
      <rect class="cls-6" x="1010.5" y="338.5" width="92" height="117"/>
      <path class="cls-1" d="M1102,339v116h-91v-116h91M1103,338h-93v118h93v-118h0Z"/>
    </g>
    <g>
      <rect class="cls-6" x="1154.5" y="338.5" width="50" height="117"/>
      <path class="cls-1" d="M1204,339v116h-49v-116h49M1205,338h-51v118h51v-118h0Z"/>
    </g>
    <g>
      <rect class="cls-6" x="1205.5" y="338.5" width="107" height="117"/>
      <path class="cls-1" d="M1312,339v116h-106v-116h106M1313,338h-108v118h108v-118h0Z"/>
    </g>
    <!-- <text class="cls-5" transform="translate(1228.78 390.95)"><tspan x="0" y="0">職員</tspan><tspan x="-15" y="36">トイレ</tspan></text> -->
    <g>
      <polygon class="cls-6" points="1508.5 855.5 1508.5 819.5 1442.5 819.5 1442.5 527.5 1508.5 527.5 1508.5 455.5 1370.5 455.5 1370.5 338.5 1662.5 338.5 1662.5 855.5 1508.5 855.5"/>
      <path class="cls-1" d="M1662,339v516h-153v-36h-66v-291h66v-73h-138v-116h291M1663,338h-293v118h138v71h-66v293h66v36h155V338h0Z"/>
    </g>
    <polyline class="cls-7" points="1321 906 1321 1024 1203 1024 1203 906"/>
    <text class="cls-4" transform="translate(1225.69 980.58)"><tspan x="0" y="0">階段</tspan></text>
    <g>
      <rect class="cls-6" x="1339.5" y="906.5" width="102" height="117"/>
      <path class="cls-1" d="M1441,907v116h-101v-116h101M1442,906h-103v118h103v-118h0Z"/>
    </g>
    <g>
      <rect class="cls-6" x="1442.5" y="1073.5" width="180" height="58"/>
      <path class="cls-1" d="M1622,1074v57h-179v-57h179M1623,1073h-181v59h181v-59h0Z"/>
    </g>
    <g>
      <rect class="cls-6" x="1511.5" y="970.5" width="111" height="102"/>
      <path class="cls-1" d="M1622,971v101h-110v-101h110M1623,970h-112v103h112v-103h0Z"/>
    </g>
    <line class="cls-8" x1="672.5" y1="1190.5" x2="722.5" y2="1190.5"/>
    <line class="cls-8" x1="1622.5" y1="970.5" x2="1622.5" y2="855.5"/>
    <line class="cls-8" x1="1370.5" y1="338.5" x2="1311.5" y2="338.5"/>
    <line class="cls-8" x1="1010.5" y1="455.5" x2="1010.5" y2="503.5"/>
    <line class="cls-8" x1="722.5" y1="739.5" x2="672.5" y2="739.5"/>
    <g>
      <rect class="cls-6" x=".5" y="680.5" width="240" height="510"/>
      <path class="cls-1" d="M240,681v509H1v-509h239M241,680H0v511h241v-511h0Z"/>
    </g>
    <g>
      <rect class="cls-6" x="39.5" y="719.5" width="162" height="440"/>
      <path class="cls-1" d="M201,720v439H40v-439h161M202,719H39v441h163v-441h0Z"/>
    </g>
    <!-- <text class="cls-4" transform="translate(66.37 951.16)"><tspan x="0" y="0">プール</tspan></text> -->
    <g>
      <rect class="cls-6" x="529.5" y="739.5" width="143" height="117"/>
      <path class="cls-1" d="M672,740v116h-142v-116h142M673,739h-144v118h144v-118h0Z"/>
    </g>
    <!-- <text class="cls-4" transform="translate(547.26 817.87)"><tspan x="0" y="0">トイレ</tspan></text> -->
    <text class="cls-3" transform="translate(1341.28 361)"><tspan x="0" y="0">階段</tspan></text>
    <text class="cls-3" transform="translate(1127.33 361.43)"><tspan x="0" y="0">階段</tspan></text>
    <g>
      <rect class="cls-6" x="1203.5" y="503.5" width="238" height="353"/>
      <path class="cls-1" d="M1441,504v352h-237v-352h237M1442,503h-239v354h239v-354h0Z"/>
    </g>

    <line class="cls-8" x1="1203" y1="660" x2="1442" y2="660"/>
    <text x="1322.5" y="581.75" text-anchor="middle" dominant-baseline="middle" font-family="Noto Sans JP" font-size="36" font-weight="600" fill="#000">本部</text>
  
  </g>
  <g id="room_gym">
    <polyline class="cls-7" points="1155 339 1155 280 1663 280 1663 0 1102 0 1102 221 1102 280 1102 339"/>
    <g>
      <path class="cls-1" d="M1270.1,95.2l4.04,1.2c-.77,2.27-1.69,4.53-2.76,6.78-1.07,2.25-2.23,4.39-3.48,6.4-1.25,2.01-2.56,3.79-3.92,5.34-.11-.35-.31-.8-.6-1.36-.29-.56-.59-1.13-.9-1.7-.31-.57-.59-1.03-.86-1.38,1.15-1.23,2.25-2.67,3.3-4.32s2.02-3.41,2.9-5.28c.88-1.87,1.64-3.76,2.28-5.68ZM1266.74,106.04l4.04-4.08.04.04v30.32h-4.08v-26.28ZM1282.3,104.4l3.12.84c-.77,2.75-1.72,5.44-2.84,8.08-1.12,2.64-2.37,5.07-3.76,7.3-1.39,2.23-2.88,4.14-4.48,5.74-.24-.35-.54-.73-.9-1.14-.36-.41-.73-.81-1.12-1.2-.39-.39-.74-.7-1.06-.94,1.55-1.33,3.02-3,4.42-5,1.4-2,2.67-4.19,3.82-6.56,1.15-2.37,2.08-4.75,2.8-7.12ZM1273.22,102.44h26v4.08h-26v-4.08ZM1278.06,121.6h15.52v3.84h-15.52v-3.84ZM1283.7,95.24h4.2v36.88h-4.2v-36.88ZM1289.54,104.68c.72,2.29,1.63,4.59,2.74,6.88,1.11,2.29,2.34,4.42,3.7,6.38,1.36,1.96,2.79,3.61,4.28,4.94-.51.37-1.07.88-1.7,1.52-.63.64-1.14,1.25-1.54,1.84-1.47-1.57-2.87-3.47-4.2-5.68-1.33-2.21-2.54-4.6-3.62-7.16-1.08-2.56-2.01-5.16-2.78-7.8l3.12-.92Z"/>
      <path class="cls-1" d="M1303.14,98.6h35.48v3.76h-35.48v-3.76ZM1304.58,106.28c1.84,0,3.91-.01,6.2-.04,2.29-.03,4.74-.07,7.34-.12s5.26-.1,7.98-.14c2.72-.04,5.41-.09,8.08-.14l-.24,3.48c-3.49.13-7.01.25-10.56.36-3.55.11-6.93.21-10.14.3-3.21.09-6.06.17-8.54.22l-.12-3.92ZM1308.66,112h21.64v3.52h-17.36v16.88h-4.28v-20.4ZM1313.42,100.88l4.8,1.24c-.91,1.23-1.88,2.45-2.92,3.68s-1.97,2.27-2.8,3.12l-3.44-1.24c.51-.64,1.03-1.35,1.58-2.14.55-.79,1.06-1.59,1.54-2.42.48-.83.89-1.57,1.24-2.24ZM1311.26,117.72h19.32v3h-19.32v-3ZM1311.26,122.96h19.24v3h-19.24v-3ZM1318.62,95h4.44v5.48h-4.44v-5.48ZM1328.94,112h4.36v16.28c0,1.04-.15,1.83-.46,2.36s-.83.93-1.58,1.2c-.77.27-1.74.43-2.9.48-1.16.05-2.55.08-4.18.08-.11-.51-.29-1.09-.54-1.74-.25-.65-.51-1.22-.78-1.7.69.03,1.4.05,2.12.06.72.01,1.36.01,1.92,0,.56-.01.95-.02,1.16-.02.35,0,.58-.06.7-.18s.18-.31.18-.58v-16.24ZM1325.26,103.6l3.48-2.12c1.12.75,2.3,1.59,3.54,2.54,1.24.95,2.42,1.91,3.54,2.88s2.04,1.86,2.76,2.66l-3.76,2.44c-.64-.8-1.49-1.69-2.56-2.68s-2.21-1.98-3.42-2.98-2.41-1.91-3.58-2.74Z"/>
      <path class="cls-1" d="M1348.9,95.04h2.32v.84h1.24v1.16c-.53,1.01-1.19,2.13-1.96,3.34-.77,1.21-1.69,2.45-2.74,3.72-1.05,1.27-2.29,2.49-3.7,3.66-.19-.29-.43-.62-.74-.98-.31-.36-.63-.71-.98-1.04s-.65-.59-.92-.78c1.23-.96,2.32-2.01,3.28-3.14s1.79-2.28,2.5-3.44c.71-1.16,1.27-2.27,1.7-3.34ZM1342.22,127.12c1.15-.21,2.45-.48,3.92-.8,1.47-.32,3.02-.67,4.66-1.06,1.64-.39,3.29-.77,4.94-1.14l.4,3.4c-2.19.64-4.4,1.27-6.64,1.88-2.24.61-4.27,1.17-6.08,1.68l-1.2-3.96ZM1344.74,105.88h3.8v22.24h-3.8v-22.24ZM1346.86,105.88h10.92v13.64h-10.92v-3.08h7.16v-7.48h-7.16v-3.08ZM1347.18,111.24h8.88v2.8h-8.88v-2.8ZM1349.94,95.04h2.92c.8.67,1.62,1.39,2.46,2.18.84.79,1.63,1.59,2.36,2.4s1.31,1.57,1.74,2.26l-2.72,3.16c-.37-.67-.89-1.44-1.56-2.32-.67-.88-1.39-1.75-2.16-2.6-.77-.85-1.55-1.56-2.32-2.12h-.72v-2.96ZM1349.98,102.4h3.56v5h-3.56v-5ZM1351.58,121.68l3.4-1.44c.67.96,1.31,1.99,1.94,3.1.63,1.11,1.19,2.19,1.7,3.26.51,1.07.87,2.03,1.08,2.88l-3.64,1.68c-.21-.85-.55-1.83-1-2.92-.45-1.09-.98-2.21-1.58-3.36-.6-1.15-1.23-2.21-1.9-3.2ZM1359.14,99.32h20v7.28h-4v-3.8h-12.16v3.8h-3.84v-7.28ZM1361.46,105.92h3.92v26.48h-3.92v-26.48ZM1363.18,105.92h13.36v10.6h-13.36v-3.44h9.44v-3.72h-9.44v-3.44ZM1363.18,119.28h15.08v12.88h-4v-9.32h-11.08v-3.56ZM1363.18,126.84h13.44v3.64h-13.44v-3.64ZM1366.82,95h4.2v6.08h-4.2v-6.08Z"/>
      <path class="cls-1" d="M1387.94,106.08l2.52.88c-.29,1.6-.67,3.25-1.12,4.96-.45,1.71-.97,3.38-1.54,5.02-.57,1.64-1.19,3.17-1.86,4.6-.67,1.43-1.37,2.65-2.12,3.66-.19-.59-.49-1.25-.9-1.98-.41-.73-.78-1.37-1.1-1.9.67-.88,1.31-1.91,1.92-3.1.61-1.19,1.19-2.47,1.74-3.84.55-1.37,1.03-2.77,1.44-4.18s.75-2.79,1.02-4.12ZM1382.78,103.4h13.76v4h-13.76v-4ZM1388.02,95.04h3.96v37.32h-3.96v-37.32ZM1391.82,109.48c.24.27.61.75,1.1,1.46.49.71,1.03,1.47,1.6,2.3.57.83,1.09,1.6,1.56,2.32.47.72.79,1.23.98,1.52l-2.32,3.24c-.24-.59-.57-1.29-1-2.12-.43-.83-.88-1.68-1.36-2.56-.48-.88-.94-1.7-1.38-2.46-.44-.76-.79-1.39-1.06-1.9l1.88-1.8ZM1404.62,118.28l3.24,1.2c-.77,1.52-1.73,3-2.88,4.44-1.15,1.44-2.39,2.77-3.72,3.98-1.33,1.21-2.68,2.23-4.04,3.06-.24-.35-.53-.73-.86-1.14-.33-.41-.68-.81-1.04-1.2-.36-.39-.7-.71-1.02-.98,1.33-.67,2.65-1.49,3.96-2.48s2.52-2.08,3.64-3.28,2.03-2.4,2.72-3.6ZM1396.7,99.36h22.24v3.64h-22.24v-3.64ZM1397.86,105.52h20.2v13.92h-20.2v-13.92ZM1401.7,108.56v2.44h12.4v-2.44h-12.4ZM1401.7,113.88v2.48h12.4v-2.48h-12.4ZM1405.74,95.08h4.16v37.32h-4.16v-37.32ZM1410.98,118.2c.69,1.09,1.55,2.22,2.58,3.38,1.03,1.16,2.12,2.23,3.28,3.22,1.16.99,2.27,1.81,3.34,2.48-.48.4-1.01.92-1.6,1.56-.59.64-1.05,1.21-1.4,1.72-1.07-.83-2.16-1.86-3.28-3.1s-2.19-2.57-3.2-3.98c-1.01-1.41-1.88-2.8-2.6-4.16l2.88-1.12Z"/>
      <path class="cls-1" d="M1441.7,129.48c-1.55,0-2.92-.19-4.12-.56s-2.27-.87-3.2-1.48c-.93-.61-1.73-1.31-2.4-2.08l2.52-3.32c.88.85,1.87,1.59,2.96,2.2s2.36.92,3.8.92c1.07,0,2-.17,2.8-.5.8-.33,1.42-.83,1.86-1.48.44-.65.66-1.42.66-2.3,0-1.01-.25-1.88-.74-2.6-.49-.72-1.35-1.27-2.58-1.66s-2.93-.58-5.12-.58v-3.84c1.89,0,3.38-.2,4.46-.6,1.08-.4,1.85-.95,2.32-1.64s.7-1.48.7-2.36c0-1.2-.37-2.14-1.12-2.82-.75-.68-1.79-1.02-3.12-1.02-1.09,0-2.11.25-3.04.76-.93.51-1.84,1.17-2.72,2l-2.68-3.28c1.23-1.07,2.55-1.93,3.96-2.6,1.41-.67,2.97-1,4.68-1,1.84,0,3.46.29,4.86.88,1.4.59,2.49,1.45,3.28,2.58.79,1.13,1.18,2.5,1.18,4.1s-.45,2.99-1.34,4.08c-.89,1.09-2.11,1.95-3.66,2.56v.16c1.12.29,2.13.76,3.04,1.4.91.64,1.62,1.44,2.14,2.4.52.96.78,2.08.78,3.36,0,1.76-.46,3.26-1.38,4.5s-2.15,2.19-3.68,2.84-3.23.98-5.1.98Z"/>
      <path class="cls-1" d="M1467.14,96.76h9.2v3.84h-5.44v31.8h-3.76v-35.64ZM1475.02,96.76h.72l.6-.16,2.8,1.6c-.35,1.12-.71,2.31-1.1,3.58s-.79,2.53-1.2,3.78c-.41,1.25-.82,2.41-1.22,3.48,1.25,1.57,2.07,3.05,2.44,4.44.37,1.39.56,2.67.56,3.84.03,1.2-.1,2.22-.38,3.06s-.73,1.49-1.34,1.94c-.29.21-.62.38-.98.5-.36.12-.75.22-1.18.3-.35.03-.74.05-1.18.06-.44.01-.89,0-1.34-.02-.03-.51-.12-1.11-.28-1.8s-.37-1.31-.64-1.84c.35.03.67.04.96.04h.8c.48,0,.85-.11,1.12-.32.27-.19.45-.5.56-.94.11-.44.16-.94.16-1.5-.03-.99-.23-2.1-.6-3.34-.37-1.24-1.15-2.57-2.32-3.98.29-.88.59-1.85.88-2.92.29-1.07.58-2.13.86-3.2.28-1.07.53-2.07.76-3s.41-1.73.54-2.4v-1.2ZM1477.86,109.2c1.55-.27,3.37-.61,5.48-1.04,2.11-.43,4.25-.87,6.44-1.32l.32,3.24c-1.92.48-3.86.95-5.82,1.42s-3.75.89-5.38,1.26l-1.04-3.56ZM1480.34,95.56h3.84v14.36h-3.84v-14.36ZM1480.98,115h19.92v17.16h-4.16v-13.6h-11.8v13.76h-3.96v-17.32ZM1482.26,99.96h7.32v3.4h-7.32v-3.4ZM1482.94,127.48h15.88v3.52h-15.88v-3.52ZM1483.1,121.28h14.88v3.28h-14.88v-3.28ZM1487.66,111.16l4.36.8c-.37.99-.73,1.94-1.06,2.86-.33.92-.65,1.73-.94,2.42l-3.72-.8c.27-.72.53-1.58.8-2.58.27-1,.45-1.9.56-2.7ZM1490.94,95.56h3.88v11.84c0,.56.06.91.18,1.06s.41.22.86.22h2.68c.29,0,.51-.09.64-.26.13-.17.23-.51.3-1.02.07-.51.11-1.27.14-2.28.4.32.94.62,1.62.9.68.28,1.3.49,1.86.62-.13,1.44-.35,2.57-.66,3.4-.31.83-.73,1.4-1.28,1.72s-1.27.48-2.18.48h-3.76c-1.15,0-2.03-.15-2.66-.44-.63-.29-1.05-.79-1.28-1.48s-.34-1.65-.34-2.88v-11.88ZM1499.62,97.8l2.8,2.8c-1.28.77-2.7,1.49-4.26,2.16-1.56.67-3.06,1.25-4.5,1.76-.08-.4-.24-.86-.48-1.38-.24-.52-.48-.98-.72-1.38.88-.37,1.76-.78,2.64-1.22.88-.44,1.71-.89,2.5-1.36.79-.47,1.46-.93,2.02-1.38Z"/>
      <path class="cls-1" d="M1311.07,196.12c-1.4-2.3-2.5-4.7-3.29-7.2s-1.19-5.24-1.19-8.22.4-5.72,1.19-8.24c.79-2.51,1.88-4.92,3.29-7.21l2.43,1.08c-1.26,2.16-2.19,4.48-2.79,6.95s-.9,4.95-.9,7.42.3,4.98.9,7.44c.6,2.46,1.53,4.77,2.79,6.93l-2.43,1.05Z"/>
      <text x="1382" y="190" text-anchor="middle" font-family="Noto Sans JP" font-size="36" font-weight="600" fill="#000">（ 体育館 ）</text>
    </g>
  </g>
  <g id="room_hifuku">
    <g>
      <rect class="cls-6" x="723.5" y="740.5" width="285" height="164"/>
      <path class="cls-1" d="M1007,742v161h-282v-161h282M1010,739h-288v167h288v-167h0Z"/>
    </g>
    <text class="cls-2" transform="translate(805.5 839.95)"><tspan x="0" y="0">被服室</tspan></text>
  </g>
  <g id="room_1e">
    <g>
      <rect class="cls-6" x="723.5" y="1074.46" width="141" height="115"/>
      <path class="cls-1" d="M863,1075.96v112h-138v-112h138M866,1072.96h-144v118h144v-118h0Z"/>
    </g>
    <text class="cls-2" transform="translate(770.53 1149.56)"><tspan x="0" y="0">1E</tspan></text>
  </g>
  <g id="room_1d">
    <g>
      <rect class="cls-6" x="867.5" y="1074.46" width="141" height="115"/>
      <path class="cls-1" d="M1007,1075.96v112h-138v-112h138M1010,1072.96h-144v118h144v-118h0Z"/>
    </g>
    <text class="cls-2" transform="translate(912.51 1149.56)"><tspan x="0" y="0">1D</tspan></text>
  </g>
  <g id="room_1c">
    <g>
      <rect class="cls-6" x="1011.5" y="1074.46" width="141" height="115"/>
      <path class="cls-1" d="M1151,1075.96v112h-138v-112h138M1154,1072.96h-144v118h144v-118h0Z"/>
    </g>
    <text class="cls-2" transform="translate(1057.1 1149.56)"><tspan x="0" y="0">1C</tspan></text>
  </g>
  <g id="room_1b">
    <g>
      <rect class="cls-6" x="1155.5" y="1074.46" width="141" height="115"/>
      <path class="cls-1" d="M1295,1075.96v112h-138v-112h138M1298,1072.96h-144v118h144v-118h0Z"/>
    </g>
    <text class="cls-2" transform="translate(1200.66 1149.56)"><tspan x="0" y="0">1B</tspan></text>
  </g>
  <g id="room_1a">
    <g>
      <rect class="cls-6" x="1299.5" y="1074.46" width="141" height="115"/>
      <path class="cls-1" d="M1439,1075.96v112h-138v-112h138M1442,1072.96h-144v118h144v-118h0Z"/>
    </g>
    <text class="cls-2" transform="translate(1345.92 1149.56)"><tspan x="0" y="0">1A</tspan></text>
    <text/>
  </g>
  <g id="room_1g">
    <g>
      <rect class="cls-6" x="386.17" y="1074.46" width="141" height="115"/>
      <path class="cls-1" d="M525.67,1075.96v112h-138v-112h138M528.67,1072.96h-144v118h144v-118h0Z"/>
    </g>
    <text class="cls-2" transform="translate(430.89 1149.56)"><tspan x="0" y="0">1G</tspan></text>
  </g>
  <g id="room_1h">
    <g>
      <rect class="cls-6" x="242.17" y="1074.46" width="141" height="115"/>
      <path class="cls-1" d="M381.67,1075.96v112h-138v-112h138M384.67,1072.96h-144v118h144v-118h0Z"/>
    </g>
    <text class="cls-2" transform="translate(286.09 1149.56)"><tspan x="0" y="0">1H</tspan></text>
  </g>
</svg>
